<svg xmlns="http://www.w3.org/2000/svg" width="50" height="50"><path d="M45.123 39.815c12-16.27.555-39.65-19.924-39.812h-.025a7.01 7.01 0 0 0-.364 0C10.92.108 0 11.407 0 25c0 13.806 11.19 25 24.993 25 4.44 0 8.877-1.173 12.832-3.545l3.173 3.174a1.27 1.27 0 0 0 1.795 0l5.172-5.176a1.27 1.27 0 0 0 0-1.795l-2.84-2.842zM17.35 3.898c-2.067 2.335-3.774 5.635-4.927 9.678H5.662c2.673-4.506 6.85-7.9 11.69-9.678zM4.366 16.115h7.43c-.516 2.436-.812 4.987-.884 7.616H2.573c.145-2.644.747-5.198 1.793-7.616zM2.573 26.27h8.338c.072 2.63.37 5.18.884 7.616h-7.43a22.15 22.15 0 0 1-1.793-7.616zm3.09 10.155h6.762c1.152 4.042 2.86 7.342 4.925 9.677-4.84-1.767-9.015-5.172-11.688-9.677zm18.062 10.893c-3.54-.793-6.78-4.866-8.65-10.893h8.65v10.893zm0-13.432h-9.328c-.55-2.422-.87-4.974-.946-7.616h10.274v7.616zm0-10.155H13.45c.076-2.642.395-5.194.946-7.616h9.328v7.616zm0-10.155h-8.65c1.87-6.024 5.108-10.096 8.65-10.892v10.892zm21.896 20.3h-1.257l1.094-1.094a1.27 1.27 0 0 0-.569-2.124l-5.98-1.603c.084-.92.14-1.853.167-2.795h8.338a22.15 22.15 0 0 1-1.793 7.616zm1.793-10.155h-8.338c-.072-2.63-.37-5.18-.884-7.616h7.43c1.046 2.418 1.648 4.972 1.793 7.616zm-3.09-10.155H37.56c-1.152-4.042-2.86-7.342-4.925-9.677 4.84 1.767 9.015 5.172 11.688 9.677zM26.262 2.683c3.54.793 6.78 4.866 8.65 10.893h-8.65V2.683zm0 13.432H35.6c.55 2.422.87 4.974.946 7.616H26.262v-7.616zM36.533 26.27a42.26 42.26 0 0 1-.114 2.128l-7.94-2.128h8.053zM26.262 47.317V36.425h.036l2.6 9.67c-.85.608-1.733 1.02-2.626 1.222zm6.324-1.175c.55-.614 1.074-1.296 1.57-2.045l.656-.656L35.97 44.6c-1.086.6-2.218 1.125-3.384 1.543zm9.31.793l-6.185-6.187a1.27 1.27 0 0 0-1.795 0l-3.02 3.022-4.106-15.326 15.32 4.107-3.02 3.02a1.27 1.27 0 0 0 0 1.795l6.186 6.187-3.378 3.38zm2.435-10.51a22.41 22.41 0 0 1-1.022 1.574l-1.528-1.53.045-.046h2.505z" stroke-width=".166" fill="#2c3c4c" stroke="#2c3c4c"/></svg>