<svg xmlns="http://www.w3.org/2000/svg" viewBox="0 0 50 50" fill="none">
  <g fill="#2c3c4c">
    <path d="M25 0C11.192917 0 0 11.192917 0 25s11.192917 25 25 25 25-11.192917 25-25S38.807083 0 25 0zm-.08865 41.666667l-10.831041-2.998855-2.413646-27.001145h26.52177l-2.41625 26.996875-10.860833 3.003125z" clip-rule="evenodd" fill-rule="evenodd"/>
    <path d="M29.791016 18.095703c-1.538086 0-2.716797.341797-3.53711 1.025391-.820312.683593-1.230468 1.661295-1.230468 2.93164-.000001 1.013998.294108 1.819824.880859 2.417969.592448.598145 1.526692 1.035157 2.802734 1.308594l1.271485.28125c.77474.170899 1.290527.363607 1.546875.580078.262044.216471.394531.525065.394531.923828 0 .444336-.192546.786133-.574219 1.025391-.381673.239258-.930664.359375-1.648437.359375-.706381 0-1.441732-.109701-2.205078-.326172-.757651-.222168-1.542807-.549479-2.357422-.982422v2.777344c.814615.30192 1.628743.529785 2.443359.683593.814616.153809 1.626628.230469 2.435547.230469 1.714681 0 2.988606-.341797 3.820312-1.02539.837402-.689291 1.25586-1.737468 1.25586-3.144532 0-1.070963-.300294-1.895507-.898438-2.476562-.598144-.581055-1.60498-1.013998-3.023437-1.298828l-1.402344-.283203c-.666504-.136719-1.128418-.29834-1.384766-.486328-.250651-.193686-.375-.460938-.375-.802735 0-.455729.188477-.793294.564453-1.009765.375977-.216472.956055-.324219 1.742188-.324219.592448 0 1.222168.08073 1.888672.240234.666504.159505 1.350098.395671 2.050781.708985v-2.701172c-.791829-.210775-1.558268-.366212-2.298828-.46875-.74056-.108236-1.461426-.164063-2.162109-.164063zm-10.945313.232422v11.517578c0 .74056-.176107 1.301921-.529297 1.683594-.347493.381673-.863281.572265-1.546875.572265h-.513672v2.486329h.666016c1.748861 0 3.053874-.393555 3.914063-1.179688.865885-.786133 1.298828-1.973145 1.298828-3.5625V18.328125h-3.289063z" font-weight="700" font-size="17.5" font-family="DejaVu Sans" letter-spacing="0" word-spacing="0"/>
  </g>
  <text style="line-height:125%" x="34.979702" y="27.334234" font-weight="400" font-size="5" font-family="sans-serif" letter-spacing="0" word-spacing="0" fill="#000"/>
</svg>
