<svg xmlns="http://www.w3.org/2000/svg" width="50" height="50" preserveAspectRatio="xMidYMid"><path d="M34.645 34.92c1.845-.202 3.245-1.877 3.181-3.888-.064-2.01-1.654-3.62-3.563-3.62h-.127c-1.973.068-3.5 1.81-3.436 3.888.063 1.006.445 1.877 1.018 2.48-2.163 4.49-5.472 7.775-10.435 10.523-3.372 1.877-6.872 2.547-10.371 2.078-2.863-.402-5.09-1.743-6.49-3.955-2.036-3.284-2.227-6.836-.51-10.388 1.21-2.547 3.119-4.424 4.327-5.362-.254-.872-.636-2.346-.827-3.419-9.226 7.038-8.271 16.555-5.472 21.046 2.1 3.351 6.363 5.429 11.072 5.429 1.272 0 2.545-.134 3.817-.47 8.144-1.675 14.316-6.769 17.816-14.342zm11.198-8.311c-4.836-5.966-11.962-9.25-20.106-9.25h-1.018c-.573-1.206-1.782-2.01-3.118-2.01h-.127c-1.973.067-3.5 1.81-3.436 3.887.064 2.01 1.654 3.62 3.563 3.62h.127c1.4-.068 2.61-1.006 3.118-2.28h1.145c4.836 0 9.417 1.475 13.553 4.357 3.181 2.212 5.472 5.094 6.744 8.58 1.082 2.814 1.019 5.562-.127 7.908-1.781 3.552-4.772 5.496-8.717 5.496-2.545 0-4.963-.804-6.235-1.408-.7.67-1.973 1.743-2.863 2.413C31.082 49.262 33.88 50 36.554 50c6.108 0 10.625-3.552 12.343-7.105 1.845-3.887 1.718-10.59-3.054-16.286zm-32.322 9.45c.063 2.01 1.654 3.62 3.563 3.62h.127c1.972-.068 3.5-1.81 3.436-3.888-.064-2.01-1.655-3.62-3.563-3.62h-.128c-.127 0-.318 0-.445.068-2.609-4.558-3.69-9.518-3.309-14.88.255-4.021 1.527-7.506 3.754-10.388 1.846-2.48 5.409-3.687 7.827-3.754 6.744-.134 9.607 8.713 9.798 12.266.827.2 2.227.67 3.181 1.005C37 5.63 30.636 0 24.528 0c-5.726 0-11.007 4.357-13.107 10.79-2.927 8.58-1.018 16.824 2.545 23.325-.318.47-.51 1.207-.445 1.944z" fill="#2c3c4c"/></svg>